<?xml version="1.0" encoding="UTF-8"?>
<!-- Generated by Pixelmator Pro 3.7 -->
<svg width="3120" height="1587" viewBox="0 0 3120 1587" xmlns="http://www.w3.org/2000/svg">
    <g id="Layer-1">
        <g id="Group">
            <path id="Path" fill="#186d33" stroke="none" d="M 552.347839 728.001404 L 541.450989 730.973816 C 501.820892 665.584778 464.32901 617.210388 429.003906 585.832214 C 393.662506 554.468262 357.501221 538.772095 320.517975 538.772095 C 290.130615 538.772095 265.362549 547.534668 246.213791 565.027344 C 227.050781 582.534241 217.482498 605.817139 217.482498 634.871887 C 217.482498 652.70636 220.95134 668.55719 227.884933 682.428467 C 234.820557 696.297668 248.52092 710.33783 269.000244 724.532532 C 289.465332 738.743591 304.496246 748.480713 314.078766 753.760254 C 323.64502 759.054016 344.620758 769.285583 376.989746 784.473145 C 386.897797 789.101624 394.156891 792.737305 398.7854 795.369934 C 429.158539 810.567688 453.926605 824.438965 473.0896 836.979675 C 492.238373 849.532532 512.548828 866.048645 534.018982 886.515808 C 555.474854 906.995117 571.496582 930.770325 582.069885 957.84552 C 592.626953 984.937012 597.920715 1015.308105 597.920715 1048.995361 C 597.920715 1124.955688 572.161865 1180.929077 520.644104 1216.923462 C 469.126373 1252.930176 403.399658 1270.915161 323.490387 1270.915161 C 244.883224 1270.915161 172.900391 1256.055176 107.513428 1226.335083 L 81.754555 1024.227295 L 91.660561 1021.25293 C 139.866135 1101.176392 184.122726 1158.964478 224.418137 1194.629395 C 264.697266 1230.29834 306.974274 1248.128784 351.230865 1248.128784 C 389.528412 1248.128784 419.421387 1237.231934 440.89151 1215.434204 C 462.347412 1193.640625 473.0896 1166.239868 473.0896 1133.203613 C 473.0896 1116.036499 469.451904 1100.016724 462.19278 1085.156738 C 454.917389 1070.292725 447.330719 1058.081543 439.406342 1048.499023 C 431.479889 1038.932861 417.439789 1027.86499 397.300201 1015.308105 C 377.144379 1002.771484 362.624115 994.006836 353.706879 989.054871 C 344.791656 984.102844 326.78833 975.028992 299.713135 961.808777 C 274.605316 949.272156 254.294846 938.696777 238.783768 930.107117 C 223.256424 921.529602 205.423996 909.644043 185.284424 894.4422 C 165.128586 879.256653 149.448654 864.22168 138.224289 849.361633 C 126.98568 834.501648 117.250572 816.174805 108.998619 794.377136 C 100.732422 772.583496 96.614586 748.806213 96.614586 723.047363 C 96.614586 652.380859 122.528076 600.197815 174.387619 566.512512 C 226.228836 532.827271 291.121429 515.985596 369.063324 515.985596 C 423.878998 515.985596 476.062012 523.911987 525.598145 539.762817 L 552.347839 728.001404 Z"/>
            <path id="path1" fill="#186d33" stroke="none" d="M 640.515137 1478.967773 L 640.515137 1476.986206 C 657.014954 1427.450073 665.283203 1369.987427 665.283203 1304.602539 L 665.283203 969.735168 C 665.283203 933.41925 661.474609 903.52832 653.887939 880.074524 C 646.289063 856.637024 633.579529 834.005188 615.745056 812.211609 L 615.745056 810.22998 L 820.825195 752.76947 L 820.825195 834.998047 L 826.77002 835.986816 C 865.732849 783.822083 917.917908 757.72345 983.304871 757.72345 C 1040.767456 757.72345 1087.160278 780.509949 1122.501587 826.078796 C 1157.826782 871.655762 1175.506592 931.437683 1175.506592 1005.400085 C 1175.506592 1084.660278 1153.369141 1148.730957 1109.126831 1197.603882 C 1064.870239 1246.488892 1000.146484 1270.915161 914.945496 1270.915161 C 883.24176 1270.915161 853.179932 1266.952026 824.788391 1259.025513 L 824.788391 1304.602539 C 824.788391 1373.287476 832.375061 1430.745972 847.57489 1476.986206 L 847.57489 1478.967773 L 640.515137 1478.967773 Z M 909.991455 1253.084839 C 941.695129 1253.084839 966.121399 1233.936035 983.304871 1195.622192 C 1000.471985 1157.324707 1009.063721 1104.150879 1009.063721 1036.113037 C 1009.063721 967.42804 999.806702 917.228699 981.323242 885.522949 C 962.8255 853.821289 934.094238 837.968445 895.131409 837.968445 C 867.39093 837.968445 843.937195 844.906067 824.788391 858.773254 L 824.788391 1098.531616 C 824.788391 1151.379883 832.869446 1190.340698 849.062073 1215.434204 C 865.238464 1240.544067 885.548889 1253.084839 909.991455 1253.084839 Z"/>
            <path id="path2" fill="#186d33" stroke="none" d="M 1217.104126 1256.055176 L 1217.104126 1254.073608 C 1232.956909 1206.519043 1240.881348 1149.056519 1240.881348 1081.685913 L 1240.881348 969.735168 C 1240.881348 932.751953 1237.074829 902.70636 1229.488159 879.578125 C 1221.889282 856.466125 1209.179688 834.005188 1191.345215 812.211609 L 1191.345215 810.22998 L 1396.425415 752.76947 L 1396.425415 872.644531 C 1400.38855 868.681335 1410.945679 857.133484 1428.129028 837.968445 C 1445.296265 818.819641 1458.841919 804.781555 1468.75 795.862305 C 1478.656006 786.949158 1493.347168 778.031921 1512.835693 769.116699 C 1532.309937 760.199463 1551.96936 756.407166 1571.783447 757.72345 L 1553.95105 924.162292 L 1548.996948 924.162292 C 1538.425659 908.309387 1521.907593 894.60907 1499.460815 883.049011 C 1476.999878 871.50116 1459.16748 865.710938 1445.961548 865.710938 C 1432.743286 865.710938 1417.555786 875.293457 1400.38855 894.4422 L 1400.38855 1081.685913 C 1400.38855 1147.742188 1408.315063 1205.204712 1424.165894 1254.073608 L 1424.165894 1256.055176 L 1217.104126 1256.055176 Z"/>
            <path id="path3" fill="#186d33" stroke="none" d="M 2028.995728 1195.125854 C 1976.485229 1245.650757 1913.89978 1270.915161 1841.251587 1270.915161 C 1768.591309 1270.915161 1706.018066 1245.650757 1653.511597 1195.125854 C 1601.003052 1144.596802 1574.749756 1084.660278 1574.749756 1015.308105 C 1574.749756 945.959961 1601.003052 885.693848 1653.511597 834.501648 C 1706.018066 783.325684 1768.591309 757.72345 1841.251587 757.72345 C 1913.89978 757.72345 1976.485229 783.325684 2028.995728 834.501648 C 2081.502197 885.693848 2107.759521 945.959961 2107.759521 1015.308105 C 2107.759521 1084.660278 2081.502197 1144.596802 2028.995728 1195.125854 Z M 1764.96582 1188.192261 C 1782.132935 1230.790649 1807.568359 1252.091919 1841.251587 1252.091919 C 1874.938965 1252.091919 1900.354004 1230.790649 1917.537476 1188.192261 C 1934.70459 1145.589722 1943.29834 1087.972534 1943.29834 1015.308105 C 1943.29834 941.996765 1934.70459 883.883118 1917.537476 840.942871 C 1900.354004 798.014832 1874.938965 776.546692 1841.251587 776.546692 C 1806.901001 776.546692 1781.315063 797.843933 1764.473511 840.446472 C 1747.627808 883.049011 1739.208984 941.345703 1739.208984 1015.308105 C 1739.208984 1087.972534 1747.782349 1145.589722 1764.96582 1188.192261 Z"/>
            <path id="path4" fill="#186d33" stroke="none" d="M 2458.463623 1160.946167 C 2444.592285 1188.037598 2423.616455 1213.127075 2395.55249 1236.239136 C 2367.472412 1259.351074 2334.281494 1270.915161 2295.983887 1270.915161 C 2253.706787 1270.915161 2220.841553 1256.706177 2197.407959 1228.316772 C 2173.954346 1199.923218 2162.235596 1161.609375 2162.235596 1113.391602 L 2162.235596 888.497375 C 2162.235596 861.42218 2159.265137 839.950012 2153.320313 824.097168 C 2147.375488 808.248352 2137.792969 792.395508 2124.589111 776.546692 L 2124.589111 773.57428 L 2320.751953 773.57428 L 2320.751953 1114.380371 C 2320.751953 1136.178101 2326.029541 1154.012573 2336.604736 1167.879761 C 2347.159912 1181.750977 2363.012695 1188.68457 2384.159424 1188.68457 C 2413.879395 1188.68457 2437.984131 1172.510254 2456.481934 1140.141235 L 2456.481934 887.504578 C 2456.481934 859.766113 2453.507568 837.813782 2447.562744 821.62323 C 2441.621826 805.444824 2432.039307 790.092468 2418.831299 775.555908 L 2418.831299 773.57428 L 2615.987061 773.57428 L 2615.987061 1049.984131 C 2615.987061 1102.83252 2619.453857 1140.312134 2626.391602 1162.431274 C 2633.325195 1184.566772 2646.358154 1204.879272 2665.523193 1223.360718 L 2665.523193 1225.342285 L 2461.433838 1269.926392 L 2461.433838 1161.934937 L 2458.463623 1160.946167 Z"/>
            <path id="path5" fill="#186d33" stroke="none" d="M 2857.727051 1270.915161 C 2815.449951 1270.915161 2782.088135 1259.847534 2757.661865 1237.728394 C 2733.219482 1215.605103 2721.00415 1180.758179 2721.00415 1133.203613 L 2721.00415 795.369934 L 2665.523193 795.369934 L 2665.523193 786.452698 L 2869.612549 658.64917 L 2880.513428 658.64917 L 2880.513428 773.57428 L 2998.408936 773.57428 L 2998.408936 795.369934 L 2880.513428 795.369934 L 2880.513428 1129.240356 C 2880.513428 1181.425415 2904.288818 1207.507813 2951.843262 1207.507813 C 2978.255127 1207.507813 2997.078369 1201.904785 3008.317139 1190.666138 L 3011.287354 1193.640625 C 2998.734619 1215.434204 2979.243896 1233.765137 2952.836182 1248.625122 C 2926.411865 1263.485229 2894.706299 1270.915161 2857.727051 1270.915161 Z"/>
        </g>
        <g id="g1">
            <path id="path6" fill="#186d33" stroke="none" d="M 1157.505249 1479.435669 L 1157.505249 1353.479492 L 1178.196167 1353.479492 L 1178.196167 1479.435669 L 1157.505249 1479.435669 Z M 1171.718384 1431.934082 L 1171.718384 1413.940918 L 1203.208374 1413.940918 C 1207.525635 1413.940918 1211.332153 1413.07019 1214.634155 1411.328613 C 1217.932129 1409.591187 1220.540405 1407.133423 1222.460938 1403.951538 C 1224.377441 1400.77771 1225.339722 1397.026001 1225.339722 1392.708862 C 1225.339722 1388.387573 1224.377441 1384.640015 1222.460938 1381.462036 C 1220.540405 1378.28418 1217.932129 1375.822388 1214.634155 1374.084961 C 1211.332153 1372.347534 1207.525635 1371.476685 1203.208374 1371.476685 L 1171.718384 1371.476685 L 1171.718384 1353.479492 L 1204.286743 1353.479492 C 1212.204956 1353.479492 1219.311523 1355.098999 1225.610352 1358.337891 C 1231.907104 1361.576782 1236.883545 1366.138184 1240.543579 1372.013794 C 1244.20166 1377.893555 1246.032715 1384.790527 1246.032715 1392.708862 C 1246.032715 1400.623047 1244.20166 1407.524048 1240.543579 1413.39978 C 1236.883545 1419.279419 1231.907104 1423.836792 1225.610352 1427.075684 C 1219.311523 1430.314575 1212.204956 1431.934082 1204.286743 1431.934082 L 1171.718384 1431.934082 Z"/>
            <path id="path7" fill="#186d33" stroke="none" d="M 1302.170776 1479.435669 L 1302.170776 1353.479492 L 1322.861694 1353.479492 L 1322.861694 1479.435669 L 1302.170776 1479.435669 Z M 1316.383911 1479.435669 L 1316.383911 1460.543335 L 1382.240845 1460.543335 L 1382.240845 1479.435669 L 1316.383911 1479.435669 Z"/>
            <path id="path8" fill="#186d33" stroke="none" d="M 1427.762817 1479.435669 L 1479.58374 1353.479492 L 1493.977905 1353.479492 L 1545.438599 1479.435669 L 1523.128296 1479.435669 L 1482.822632 1377.413452 L 1490.378784 1377.413452 L 1449.713135 1479.435669 L 1427.762817 1479.435669 Z M 1453.312134 1455.143677 L 1453.312134 1437.150513 L 1520.068359 1437.150513 L 1520.068359 1455.143677 L 1453.312134 1455.143677 Z"/>
            <path id="path9" fill="#186d33" stroke="none" d="M 1599.420166 1479.435669 L 1599.420166 1353.479492 L 1613.814331 1353.479492 L 1620.111084 1377.234375 L 1620.111084 1479.435669 L 1599.420166 1479.435669 Z M 1686.686157 1479.435669 L 1611.295532 1381.010376 L 1613.814331 1353.479492 L 1689.204956 1451.904785 L 1686.686157 1479.435669 Z M 1686.686157 1479.435669 L 1680.387329 1457.304321 L 1680.387329 1353.479492 L 1701.082397 1353.479492 L 1701.082397 1479.435669 L 1686.686157 1479.435669 Z"/>
            <path id="path10" fill="#186d33" stroke="none" d="M 1755.057739 1372.375977 L 1755.057739 1353.479492 L 1857.800293 1353.479492 L 1857.800293 1372.375977 L 1755.057739 1372.375977 Z M 1796.085571 1479.435669 L 1796.085571 1357.080566 L 1816.776489 1357.080566 L 1816.776489 1479.435669 L 1796.085571 1479.435669 Z"/>
            <path id="path11" fill="#186d33" stroke="none" d="M 2040.974976 1481.234253 C 2031.856323 1481.234253 2023.429321 1479.586304 2015.694214 1476.286255 C 2007.954956 1472.990356 2001.208496 1468.368042 1995.450806 1462.431274 C 1989.693237 1456.494629 1985.253906 1449.597656 1982.137085 1441.740356 C 1979.016113 1433.883179 1977.457642 1425.456177 1977.457642 1416.459595 C 1977.457642 1407.463013 1979.016113 1399.036133 1982.137085 1391.178833 C 1985.253906 1383.321655 1989.693237 1376.453125 1995.450806 1370.573364 C 2001.208496 1364.697754 2007.954956 1360.079468 2015.694214 1356.718384 C 2023.429321 1353.36145 2031.856323 1351.68103 2040.974976 1351.68103 C 2051.167725 1351.68103 2059.985352 1353.36145 2067.423584 1356.718384 C 2074.861572 1360.079468 2081.46167 1364.636719 2087.219238 1370.394409 L 2073.181152 1384.428345 C 2069.462158 1380.355347 2064.93335 1377.17334 2059.598877 1374.894653 C 2054.260254 1372.616089 2048.051025 1371.476685 2040.974976 1371.476685 C 2034.737183 1371.476685 2029.036499 1372.555054 2023.880981 1374.715698 C 2018.721558 1376.872192 2014.253784 1379.964722 2010.477661 1383.980835 C 2006.697632 1388.000977 2003.788208 1392.769897 2001.749634 1398.283325 C 1999.707031 1403.805054 1998.689819 1409.86377 1998.689819 1416.459595 C 1998.689819 1423.055542 1999.707031 1429.114258 2001.749634 1434.631836 C 2003.788208 1440.149414 2006.697632 1444.918335 2010.477661 1448.938477 C 2014.253784 1452.958618 2018.721558 1456.042969 2023.880981 1458.203613 C 2029.036499 1460.364258 2034.737183 1461.442505 2040.974976 1461.442505 C 2048.64917 1461.442505 2055.159424 1460.27063 2060.498047 1457.935059 C 2065.83252 1455.595337 2070.361328 1452.384888 2074.084473 1448.307739 L 2088.118408 1462.341797 C 2082.36084 1468.221558 2075.581787 1472.839844 2067.785645 1476.196777 C 2059.985352 1479.553711 2051.049805 1481.234253 2040.974976 1481.234253 Z"/>
            <path id="path12" fill="#186d33" stroke="none" d="M 2133.276367 1479.435669 L 2185.099365 1353.479492 L 2199.495361 1353.479492 L 2250.956299 1479.435669 L 2228.641846 1479.435669 L 2188.338135 1377.413452 L 2195.894287 1377.413452 L 2155.22876 1479.435669 L 2133.276367 1479.435669 Z M 2158.829834 1455.143677 L 2158.829834 1437.150513 L 2225.585938 1437.150513 L 2225.585938 1455.143677 L 2158.829834 1455.143677 Z"/>
            <path id="path13" fill="#186d33" stroke="none" d="M 2304.935791 1479.435669 L 2304.935791 1353.479492 L 2325.626709 1353.479492 L 2325.626709 1479.435669 L 2304.935791 1479.435669 Z M 2319.148682 1372.375977 L 2319.148682 1353.479492 L 2386.26709 1353.479492 L 2386.26709 1372.375977 L 2319.148682 1372.375977 Z M 2319.148682 1425.456177 L 2319.148682 1406.563843 L 2383.207275 1406.563843 L 2383.207275 1425.456177 L 2319.148682 1425.456177 Z"/>
            <path id="path14" fill="#186d33" stroke="none" d="M 2442.765381 1479.435669 L 2442.765381 1353.479492 L 2463.456299 1353.479492 L 2463.456299 1479.435669 L 2442.765381 1479.435669 Z M 2456.978271 1372.375977 L 2456.978271 1353.479492 L 2526.615479 1353.479492 L 2526.615479 1372.375977 L 2456.978271 1372.375977 Z M 2456.978271 1424.194824 L 2456.978271 1406.022583 L 2521.394775 1406.022583 L 2521.394775 1424.194824 L 2456.978271 1424.194824 Z M 2456.978271 1479.435669 L 2456.978271 1460.543335 L 2527.514648 1460.543335 L 2527.514648 1479.435669 L 2456.978271 1479.435669 Z M 2475.512695 1341.064941 L 2466.516113 1332.068359 L 2489.546631 1302.738892 L 2504.842041 1318.034302 L 2475.512695 1341.064941 Z"/>
        </g>
        <path id="path15" fill="#186d33" stroke="none" d="M 2191.800781 239.008301 L 2189.648682 228.197388 L 2179.003662 225.361938 C 2124.967773 210.987793 2067.547119 209.4552 2012.898193 220.904785 L 1840.132446 48.13916 L 1667.366821 220.904785 C 1612.711304 209.4552 1555.291016 210.987793 1501.2677 225.361938 L 1490.616333 228.210083 L 1488.464355 239.008301 C 1483.853882 262.143799 1481.516724 285.828491 1481.516724 309.391724 C 1481.516724 349.19397 1488.023926 388.306519 1500.852661 425.643799 C 1513.260132 461.73584 1531.325317 495.522827 1554.543823 526.059326 C 1577.519775 556.257324 1604.959106 582.534668 1636.11499 604.163086 C 1667.11145 625.676575 1701.057983 642.068726 1737.035156 652.886047 L 1748.120605 656.027832 C 1759.199829 658.971741 1770.572876 661.404663 1782.015991 663.275635 C 1789.659912 664.533691 1797.424805 665.54895 1805.247192 666.315308 C 1808.542358 666.634583 1811.952148 666.909119 1815.656006 667.164612 L 1818.146484 667.324158 C 1820.981812 667.490234 1823.816895 667.637085 1826.575684 667.739319 L 1829.366333 667.841431 C 1833.357178 667.956421 1836.882324 668.013855 1840.132446 668.013855 C 1843.382813 668.013855 1846.907837 667.956421 1850.879639 667.841431 L 1853.682983 667.739319 C 1856.44812 667.637085 1859.283203 667.490234 1862.137573 667.324158 L 1864.609009 667.164612 C 1868.287109 666.909119 1871.690674 666.634583 1875.170898 666.30249 C 1882.757324 665.561768 1890.528564 664.546448 1898.357666 663.262939 C 1909.704834 661.404663 1921.071655 658.971741 1932.150757 656.027832 L 1941.276001 653.607666 L 1943.217163 652.937195 L 1943.22998 652.886047 C 1979.207153 642.068726 2013.153564 625.676575 2044.150024 604.163086 C 2075.305908 582.534668 2102.745361 556.257324 2125.721191 526.059326 C 2148.939453 495.522827 2167.004883 461.73584 2179.412354 425.643799 C 2192.241211 388.306519 2198.748291 349.19397 2198.748291 309.391724 C 2198.748291 285.822021 2196.411133 262.137451 2191.800781 239.008301 Z M 2096.883057 411.244019 C 2096.883057 381.058716 2091.72998 351.550293 2081.557373 323.54248 C 2072.151367 297.622925 2058.645508 273.523193 2041.384888 251.830933 C 2080.605957 246.319946 2120.682861 248.063232 2159.080322 256.881958 C 2161.921631 274.219238 2163.358643 291.869385 2163.358643 309.391724 C 2163.358643 360.733032 2151.621582 409.845581 2128.479736 455.362915 C 2110.67627 490.369507 2086.212646 522.291626 2056.985107 548.837158 C 2083.166748 507.891968 2096.883057 460.809937 2096.883057 411.244019 Z M 1864.589966 337.16333 C 1903.312988 300.53479 1950.605469 273.90625 2001.672119 259.991821 C 2040.267456 301.147827 2061.493408 354.781494 2061.493408 411.244019 C 2061.493408 470.369385 2038.466675 525.963623 1996.659302 567.770874 C 1982.936401 581.493713 1967.585205 593.313721 1950.956787 602.956116 C 1951.863647 592.541077 1952.32312 582.119629 1952.32312 571.895935 C 1952.32312 485.631348 1921.192871 402.39978 1864.589966 337.16333 Z M 1729.30835 602.956116 C 1712.67981 593.307373 1697.328735 581.493713 1683.605713 567.770874 C 1642.500854 526.666016 1619.53125 471.93396 1618.918335 413.664185 C 1618.318115 356.211792 1639.49939 301.716064 1678.599243 259.991821 C 1729.678589 273.919067 1776.971436 300.547485 1815.675049 337.16333 C 1759.072144 402.39978 1727.94165 485.631348 1727.94165 571.895935 C 1727.94165 582.074829 1728.401489 592.502686 1729.30835 602.956116 Z M 1840.132446 362.961548 C 1889.685791 421.320679 1916.933716 495.369629 1916.933716 571.895935 C 1916.933716 587.783691 1915.688354 604.060852 1913.236206 620.299744 C 1866.460938 636.634399 1813.823486 636.634399 1767.035156 620.299744 C 1764.57666 604.016235 1763.331299 587.739014 1763.331299 571.895935 C 1763.331299 495.375977 1790.579224 421.327026 1840.132446 362.961548 Z M 1840.132446 311.607544 C 1802.086426 275.585815 1756.141113 248.005737 1706.779541 231.543457 L 1840.132446 98.19043 L 1973.485596 231.543457 C 1924.123901 248.005737 1878.178711 275.585815 1840.132446 311.607544 Z M 1623.522461 549.054321 C 1594.186401 522.464111 1569.639893 490.465332 1551.791626 455.369385 C 1528.643311 409.839111 1516.906494 360.726563 1516.906494 309.391724 C 1516.906494 291.907593 1518.343384 274.251099 1521.184814 256.881958 C 1559.620361 248.063232 1599.780273 246.319946 1638.911987 251.83728 C 1571.025391 337.437744 1565.610229 457.904541 1623.522461 549.054321 Z"/>
    </g>
</svg>
